<svg xmlns="http://www.w3.org/2000/svg" width="1200" height="280" viewBox="0 0 1200 280" role="img" aria-label="ShockRock2004. Agentic AI, voice AI and LLM systems. Final year at IIT Madras. Open to SDE roles, graduating 2027.">
  <title>ShockRock2004</title>

  <defs>
    <pattern id="panel" width="7" height="7" patternUnits="userSpaceOnUse">
      <circle cx="5" cy="5" r="1.4" fill="#16232E"/>
    </pattern>

    <filter id="led" x="-80%" y="-80%" width="260%" height="260%">
      <feGaussianBlur stdDeviation="2" result="b"/>
      <feMerge><feMergeNode in="b"/><feMergeNode in="b"/><feMergeNode in="SourceGraphic"/></feMerge>
    </filter>

    <style>
      .sans { font-family: "Inter", "Segoe UI Variable Display", "Segoe UI", -apple-system,
              BlinkMacSystemFont, "Helvetica Neue", Helvetica, Arial, sans-serif; }
      .mono { font-family: ui-monospace, "Cascadia Code", "JetBrains Mono", Consolas, monospace; }

      .kicker { font-size: 11.5px; letter-spacing: 3px; fill: #55636F; }
      .status { font-size: 10.5px; font-weight: 700; letter-spacing: 1.4px; fill: #34D399; }
      .lede   { font-size: 14px; fill: #7C8B9A; }
      .lbl    { font-size: 9.5px; letter-spacing: 2px; fill: #46525E; }
      .val    { font-size: 12.5px; fill: #C6D2DE; }

      /* base state is the finished state. animations run FROM hidden via fill-mode both,
         so a renderer that ignores CSS animation still shows a complete banner. the first
         hello carries opacity="1" as an attribute for the same reason. */
      .in { animation: in .7s cubic-bezier(.2,.7,.3,1) both; }
      @keyframes in { from { opacity: 0; transform: translateY(6px); } to { opacity: 1; transform: none; } }

      .dot { animation: dot 2.8s ease-in-out infinite; }
      @keyframes dot { 0%, 100% { opacity: .4; } 50% { opacity: 1; } }

      .hw { animation: hw 15.6s steps(1, end) infinite; }
      @keyframes hw {
        0%    { opacity: 0; }
        1.33%  { opacity: 1; }
        15.33% { opacity: 1; }
        16.67% { opacity: 0; }
        100%  { opacity: 0; }
      }
    </style>
  </defs>

  <rect x="0.5" y="0.5" width="1199" height="279" rx="14" fill="#0B0F14" stroke="#1B2733"/>

  <!-- dot matrix panel : hello, cycling through languages -->
  <rect x="806.5" y="106.5" width="315" height="49" fill="url(#panel)"/>
  <g fill="#38BDF8" filter="url(#led)">
    <g class="hw" opacity="1" style="animation-delay:0.0s" aria-label="hello, english"><circle cx="866" cy="110" r="2.1"/><circle cx="894" cy="110" r="2.1"/><circle cx="866" cy="117" r="2.1"/><circle cx="894" cy="117" r="2.1"/><circle cx="866" cy="124" r="2.1"/><circle cx="894" cy="124" r="2.1"/><circle cx="866" cy="131" r="2.1"/><circle cx="873" cy="131" r="2.1"/><circle cx="880" cy="131" r="2.1"/><circle cx="887" cy="131" r="2.1"/><circle cx="894" cy="131" r="2.1"/><circle cx="866" cy="138" r="2.1"/><circle cx="894" cy="138" r="2.1"/><circle cx="866" cy="145" r="2.1"/><circle cx="894" cy="145" r="2.1"/><circle cx="866" cy="152" r="2.1"/><circle cx="894" cy="152" r="2.1"/><circle cx="908" cy="110" r="2.1"/><circle cx="915" cy="110" r="2.1"/><circle cx="922" cy="110" r="2.1"/><circle cx="929" cy="110" r="2.1"/><circle cx="936" cy="110" r="2.1"/><circle cx="908" cy="117" r="2.1"/><circle cx="908" cy="124" r="2.1"/><circle cx="908" cy="131" r="2.1"/><circle cx="915" cy="131" r="2.1"/><circle cx="922" cy="131" r="2.1"/><circle cx="929" cy="131" r="2.1"/><circle cx="908" cy="138" r="2.1"/><circle cx="908" cy="145" r="2.1"/><circle cx="908" cy="152" r="2.1"/><circle cx="915" cy="152" r="2.1"/><circle cx="922" cy="152" r="2.1"/><circle cx="929" cy="152" r="2.1"/><circle cx="936" cy="152" r="2.1"/><circle cx="950" cy="110" r="2.1"/><circle cx="950" cy="117" r="2.1"/><circle cx="950" cy="124" r="2.1"/><circle cx="950" cy="131" r="2.1"/><circle cx="950" cy="138" r="2.1"/><circle cx="950" cy="145" r="2.1"/><circle cx="950" cy="152" r="2.1"/><circle cx="957" cy="152" r="2.1"/><circle cx="964" cy="152" r="2.1"/><circle cx="971" cy="152" r="2.1"/><circle cx="978" cy="152" r="2.1"/><circle cx="992" cy="110" r="2.1"/><circle cx="992" cy="117" r="2.1"/><circle cx="992" cy="124" r="2.1"/><circle cx="992" cy="131" r="2.1"/><circle cx="992" cy="138" r="2.1"/><circle cx="992" cy="145" r="2.1"/><circle cx="992" cy="152" r="2.1"/><circle cx="999" cy="152" r="2.1"/><circle cx="1006" cy="152" r="2.1"/><circle cx="1013" cy="152" r="2.1"/><circle cx="1020" cy="152" r="2.1"/><circle cx="1041" cy="110" r="2.1"/><circle cx="1048" cy="110" r="2.1"/><circle cx="1055" cy="110" r="2.1"/><circle cx="1034" cy="117" r="2.1"/><circle cx="1062" cy="117" r="2.1"/><circle cx="1034" cy="124" r="2.1"/><circle cx="1062" cy="124" r="2.1"/><circle cx="1034" cy="131" r="2.1"/><circle cx="1062" cy="131" r="2.1"/><circle cx="1034" cy="138" r="2.1"/><circle cx="1062" cy="138" r="2.1"/><circle cx="1034" cy="145" r="2.1"/><circle cx="1062" cy="145" r="2.1"/><circle cx="1041" cy="152" r="2.1"/><circle cx="1048" cy="152" r="2.1"/><circle cx="1055" cy="152" r="2.1"/></g>
    <g class="hw" opacity="0" style="animation-delay:2.6s" aria-label="hola, spanish"><circle cx="887" cy="110" r="2.1"/><circle cx="915" cy="110" r="2.1"/><circle cx="887" cy="117" r="2.1"/><circle cx="915" cy="117" r="2.1"/><circle cx="887" cy="124" r="2.1"/><circle cx="915" cy="124" r="2.1"/><circle cx="887" cy="131" r="2.1"/><circle cx="894" cy="131" r="2.1"/><circle cx="901" cy="131" r="2.1"/><circle cx="908" cy="131" r="2.1"/><circle cx="915" cy="131" r="2.1"/><circle cx="887" cy="138" r="2.1"/><circle cx="915" cy="138" r="2.1"/><circle cx="887" cy="145" r="2.1"/><circle cx="915" cy="145" r="2.1"/><circle cx="887" cy="152" r="2.1"/><circle cx="915" cy="152" r="2.1"/><circle cx="936" cy="110" r="2.1"/><circle cx="943" cy="110" r="2.1"/><circle cx="950" cy="110" r="2.1"/><circle cx="929" cy="117" r="2.1"/><circle cx="957" cy="117" r="2.1"/><circle cx="929" cy="124" r="2.1"/><circle cx="957" cy="124" r="2.1"/><circle cx="929" cy="131" r="2.1"/><circle cx="957" cy="131" r="2.1"/><circle cx="929" cy="138" r="2.1"/><circle cx="957" cy="138" r="2.1"/><circle cx="929" cy="145" r="2.1"/><circle cx="957" cy="145" r="2.1"/><circle cx="936" cy="152" r="2.1"/><circle cx="943" cy="152" r="2.1"/><circle cx="950" cy="152" r="2.1"/><circle cx="971" cy="110" r="2.1"/><circle cx="971" cy="117" r="2.1"/><circle cx="971" cy="124" r="2.1"/><circle cx="971" cy="131" r="2.1"/><circle cx="971" cy="138" r="2.1"/><circle cx="971" cy="145" r="2.1"/><circle cx="971" cy="152" r="2.1"/><circle cx="978" cy="152" r="2.1"/><circle cx="985" cy="152" r="2.1"/><circle cx="992" cy="152" r="2.1"/><circle cx="999" cy="152" r="2.1"/><circle cx="1020" cy="110" r="2.1"/><circle cx="1027" cy="110" r="2.1"/><circle cx="1034" cy="110" r="2.1"/><circle cx="1013" cy="117" r="2.1"/><circle cx="1041" cy="117" r="2.1"/><circle cx="1013" cy="124" r="2.1"/><circle cx="1041" cy="124" r="2.1"/><circle cx="1013" cy="131" r="2.1"/><circle cx="1020" cy="131" r="2.1"/><circle cx="1027" cy="131" r="2.1"/><circle cx="1034" cy="131" r="2.1"/><circle cx="1041" cy="131" r="2.1"/><circle cx="1013" cy="138" r="2.1"/><circle cx="1041" cy="138" r="2.1"/><circle cx="1013" cy="145" r="2.1"/><circle cx="1041" cy="145" r="2.1"/><circle cx="1013" cy="152" r="2.1"/><circle cx="1041" cy="152" r="2.1"/></g>
    <g class="hw" opacity="0" style="animation-delay:5.2s" aria-label="bonjour, french"><circle cx="824" cy="110" r="2.1"/><circle cx="831" cy="110" r="2.1"/><circle cx="838" cy="110" r="2.1"/><circle cx="845" cy="110" r="2.1"/><circle cx="824" cy="117" r="2.1"/><circle cx="852" cy="117" r="2.1"/><circle cx="824" cy="124" r="2.1"/><circle cx="852" cy="124" r="2.1"/><circle cx="824" cy="131" r="2.1"/><circle cx="831" cy="131" r="2.1"/><circle cx="838" cy="131" r="2.1"/><circle cx="845" cy="131" r="2.1"/><circle cx="824" cy="138" r="2.1"/><circle cx="852" cy="138" r="2.1"/><circle cx="824" cy="145" r="2.1"/><circle cx="852" cy="145" r="2.1"/><circle cx="824" cy="152" r="2.1"/><circle cx="831" cy="152" r="2.1"/><circle cx="838" cy="152" r="2.1"/><circle cx="845" cy="152" r="2.1"/><circle cx="873" cy="110" r="2.1"/><circle cx="880" cy="110" r="2.1"/><circle cx="887" cy="110" r="2.1"/><circle cx="866" cy="117" r="2.1"/><circle cx="894" cy="117" r="2.1"/><circle cx="866" cy="124" r="2.1"/><circle cx="894" cy="124" r="2.1"/><circle cx="866" cy="131" r="2.1"/><circle cx="894" cy="131" r="2.1"/><circle cx="866" cy="138" r="2.1"/><circle cx="894" cy="138" r="2.1"/><circle cx="866" cy="145" r="2.1"/><circle cx="894" cy="145" r="2.1"/><circle cx="873" cy="152" r="2.1"/><circle cx="880" cy="152" r="2.1"/><circle cx="887" cy="152" r="2.1"/><circle cx="908" cy="110" r="2.1"/><circle cx="936" cy="110" r="2.1"/><circle cx="908" cy="117" r="2.1"/><circle cx="915" cy="117" r="2.1"/><circle cx="936" cy="117" r="2.1"/><circle cx="908" cy="124" r="2.1"/><circle cx="922" cy="124" r="2.1"/><circle cx="936" cy="124" r="2.1"/><circle cx="908" cy="131" r="2.1"/><circle cx="929" cy="131" r="2.1"/><circle cx="936" cy="131" r="2.1"/><circle cx="908" cy="138" r="2.1"/><circle cx="936" cy="138" r="2.1"/><circle cx="908" cy="145" r="2.1"/><circle cx="936" cy="145" r="2.1"/><circle cx="908" cy="152" r="2.1"/><circle cx="936" cy="152" r="2.1"/><circle cx="964" cy="110" r="2.1"/><circle cx="971" cy="110" r="2.1"/><circle cx="978" cy="110" r="2.1"/><circle cx="971" cy="117" r="2.1"/><circle cx="971" cy="124" r="2.1"/><circle cx="971" cy="131" r="2.1"/><circle cx="971" cy="138" r="2.1"/><circle cx="950" cy="145" r="2.1"/><circle cx="971" cy="145" r="2.1"/><circle cx="957" cy="152" r="2.1"/><circle cx="964" cy="152" r="2.1"/><circle cx="999" cy="110" r="2.1"/><circle cx="1006" cy="110" r="2.1"/><circle cx="1013" cy="110" r="2.1"/><circle cx="992" cy="117" r="2.1"/><circle cx="1020" cy="117" r="2.1"/><circle cx="992" cy="124" r="2.1"/><circle cx="1020" cy="124" r="2.1"/><circle cx="992" cy="131" r="2.1"/><circle cx="1020" cy="131" r="2.1"/><circle cx="992" cy="138" r="2.1"/><circle cx="1020" cy="138" r="2.1"/><circle cx="992" cy="145" r="2.1"/><circle cx="1020" cy="145" r="2.1"/><circle cx="999" cy="152" r="2.1"/><circle cx="1006" cy="152" r="2.1"/><circle cx="1013" cy="152" r="2.1"/><circle cx="1034" cy="110" r="2.1"/><circle cx="1062" cy="110" r="2.1"/><circle cx="1034" cy="117" r="2.1"/><circle cx="1062" cy="117" r="2.1"/><circle cx="1034" cy="124" r="2.1"/><circle cx="1062" cy="124" r="2.1"/><circle cx="1034" cy="131" r="2.1"/><circle cx="1062" cy="131" r="2.1"/><circle cx="1034" cy="138" r="2.1"/><circle cx="1062" cy="138" r="2.1"/><circle cx="1034" cy="145" r="2.1"/><circle cx="1062" cy="145" r="2.1"/><circle cx="1041" cy="152" r="2.1"/><circle cx="1048" cy="152" r="2.1"/><circle cx="1055" cy="152" r="2.1"/><circle cx="1076" cy="110" r="2.1"/><circle cx="1083" cy="110" r="2.1"/><circle cx="1090" cy="110" r="2.1"/><circle cx="1097" cy="110" r="2.1"/><circle cx="1076" cy="117" r="2.1"/><circle cx="1104" cy="117" r="2.1"/><circle cx="1076" cy="124" r="2.1"/><circle cx="1104" cy="124" r="2.1"/><circle cx="1076" cy="131" r="2.1"/><circle cx="1083" cy="131" r="2.1"/><circle cx="1090" cy="131" r="2.1"/><circle cx="1097" cy="131" r="2.1"/><circle cx="1076" cy="138" r="2.1"/><circle cx="1090" cy="138" r="2.1"/><circle cx="1076" cy="145" r="2.1"/><circle cx="1097" cy="145" r="2.1"/><circle cx="1076" cy="152" r="2.1"/><circle cx="1104" cy="152" r="2.1"/></g>
    <g class="hw" opacity="0" style="animation-delay:7.8s" aria-label="hallo, german"><circle cx="866" cy="110" r="2.1"/><circle cx="894" cy="110" r="2.1"/><circle cx="866" cy="117" r="2.1"/><circle cx="894" cy="117" r="2.1"/><circle cx="866" cy="124" r="2.1"/><circle cx="894" cy="124" r="2.1"/><circle cx="866" cy="131" r="2.1"/><circle cx="873" cy="131" r="2.1"/><circle cx="880" cy="131" r="2.1"/><circle cx="887" cy="131" r="2.1"/><circle cx="894" cy="131" r="2.1"/><circle cx="866" cy="138" r="2.1"/><circle cx="894" cy="138" r="2.1"/><circle cx="866" cy="145" r="2.1"/><circle cx="894" cy="145" r="2.1"/><circle cx="866" cy="152" r="2.1"/><circle cx="894" cy="152" r="2.1"/><circle cx="915" cy="110" r="2.1"/><circle cx="922" cy="110" r="2.1"/><circle cx="929" cy="110" r="2.1"/><circle cx="908" cy="117" r="2.1"/><circle cx="936" cy="117" r="2.1"/><circle cx="908" cy="124" r="2.1"/><circle cx="936" cy="124" r="2.1"/><circle cx="908" cy="131" r="2.1"/><circle cx="915" cy="131" r="2.1"/><circle cx="922" cy="131" r="2.1"/><circle cx="929" cy="131" r="2.1"/><circle cx="936" cy="131" r="2.1"/><circle cx="908" cy="138" r="2.1"/><circle cx="936" cy="138" r="2.1"/><circle cx="908" cy="145" r="2.1"/><circle cx="936" cy="145" r="2.1"/><circle cx="908" cy="152" r="2.1"/><circle cx="936" cy="152" r="2.1"/><circle cx="950" cy="110" r="2.1"/><circle cx="950" cy="117" r="2.1"/><circle cx="950" cy="124" r="2.1"/><circle cx="950" cy="131" r="2.1"/><circle cx="950" cy="138" r="2.1"/><circle cx="950" cy="145" r="2.1"/><circle cx="950" cy="152" r="2.1"/><circle cx="957" cy="152" r="2.1"/><circle cx="964" cy="152" r="2.1"/><circle cx="971" cy="152" r="2.1"/><circle cx="978" cy="152" r="2.1"/><circle cx="992" cy="110" r="2.1"/><circle cx="992" cy="117" r="2.1"/><circle cx="992" cy="124" r="2.1"/><circle cx="992" cy="131" r="2.1"/><circle cx="992" cy="138" r="2.1"/><circle cx="992" cy="145" r="2.1"/><circle cx="992" cy="152" r="2.1"/><circle cx="999" cy="152" r="2.1"/><circle cx="1006" cy="152" r="2.1"/><circle cx="1013" cy="152" r="2.1"/><circle cx="1020" cy="152" r="2.1"/><circle cx="1041" cy="110" r="2.1"/><circle cx="1048" cy="110" r="2.1"/><circle cx="1055" cy="110" r="2.1"/><circle cx="1034" cy="117" r="2.1"/><circle cx="1062" cy="117" r="2.1"/><circle cx="1034" cy="124" r="2.1"/><circle cx="1062" cy="124" r="2.1"/><circle cx="1034" cy="131" r="2.1"/><circle cx="1062" cy="131" r="2.1"/><circle cx="1034" cy="138" r="2.1"/><circle cx="1062" cy="138" r="2.1"/><circle cx="1034" cy="145" r="2.1"/><circle cx="1062" cy="145" r="2.1"/><circle cx="1041" cy="152" r="2.1"/><circle cx="1048" cy="152" r="2.1"/><circle cx="1055" cy="152" r="2.1"/></g>
    <g class="hw" opacity="0" style="animation-delay:10.4s" aria-label="ciao, italian"><circle cx="894" cy="110" r="2.1"/><circle cx="901" cy="110" r="2.1"/><circle cx="908" cy="110" r="2.1"/><circle cx="887" cy="117" r="2.1"/><circle cx="915" cy="117" r="2.1"/><circle cx="887" cy="124" r="2.1"/><circle cx="887" cy="131" r="2.1"/><circle cx="887" cy="138" r="2.1"/><circle cx="887" cy="145" r="2.1"/><circle cx="915" cy="145" r="2.1"/><circle cx="894" cy="152" r="2.1"/><circle cx="901" cy="152" r="2.1"/><circle cx="908" cy="152" r="2.1"/><circle cx="929" cy="110" r="2.1"/><circle cx="936" cy="110" r="2.1"/><circle cx="943" cy="110" r="2.1"/><circle cx="950" cy="110" r="2.1"/><circle cx="957" cy="110" r="2.1"/><circle cx="943" cy="117" r="2.1"/><circle cx="943" cy="124" r="2.1"/><circle cx="943" cy="131" r="2.1"/><circle cx="943" cy="138" r="2.1"/><circle cx="943" cy="145" r="2.1"/><circle cx="929" cy="152" r="2.1"/><circle cx="936" cy="152" r="2.1"/><circle cx="943" cy="152" r="2.1"/><circle cx="950" cy="152" r="2.1"/><circle cx="957" cy="152" r="2.1"/><circle cx="978" cy="110" r="2.1"/><circle cx="985" cy="110" r="2.1"/><circle cx="992" cy="110" r="2.1"/><circle cx="971" cy="117" r="2.1"/><circle cx="999" cy="117" r="2.1"/><circle cx="971" cy="124" r="2.1"/><circle cx="999" cy="124" r="2.1"/><circle cx="971" cy="131" r="2.1"/><circle cx="978" cy="131" r="2.1"/><circle cx="985" cy="131" r="2.1"/><circle cx="992" cy="131" r="2.1"/><circle cx="999" cy="131" r="2.1"/><circle cx="971" cy="138" r="2.1"/><circle cx="999" cy="138" r="2.1"/><circle cx="971" cy="145" r="2.1"/><circle cx="999" cy="145" r="2.1"/><circle cx="971" cy="152" r="2.1"/><circle cx="999" cy="152" r="2.1"/><circle cx="1020" cy="110" r="2.1"/><circle cx="1027" cy="110" r="2.1"/><circle cx="1034" cy="110" r="2.1"/><circle cx="1013" cy="117" r="2.1"/><circle cx="1041" cy="117" r="2.1"/><circle cx="1013" cy="124" r="2.1"/><circle cx="1041" cy="124" r="2.1"/><circle cx="1013" cy="131" r="2.1"/><circle cx="1041" cy="131" r="2.1"/><circle cx="1013" cy="138" r="2.1"/><circle cx="1041" cy="138" r="2.1"/><circle cx="1013" cy="145" r="2.1"/><circle cx="1041" cy="145" r="2.1"/><circle cx="1020" cy="152" r="2.1"/><circle cx="1027" cy="152" r="2.1"/><circle cx="1034" cy="152" r="2.1"/></g>
    <g class="hw" opacity="0" style="animation-delay:13.0s" aria-label="privet, russian"><circle cx="845" cy="110" r="2.1"/><circle cx="852" cy="110" r="2.1"/><circle cx="859" cy="110" r="2.1"/><circle cx="866" cy="110" r="2.1"/><circle cx="845" cy="117" r="2.1"/><circle cx="873" cy="117" r="2.1"/><circle cx="845" cy="124" r="2.1"/><circle cx="873" cy="124" r="2.1"/><circle cx="845" cy="131" r="2.1"/><circle cx="852" cy="131" r="2.1"/><circle cx="859" cy="131" r="2.1"/><circle cx="866" cy="131" r="2.1"/><circle cx="845" cy="138" r="2.1"/><circle cx="845" cy="145" r="2.1"/><circle cx="845" cy="152" r="2.1"/><circle cx="887" cy="110" r="2.1"/><circle cx="894" cy="110" r="2.1"/><circle cx="901" cy="110" r="2.1"/><circle cx="908" cy="110" r="2.1"/><circle cx="887" cy="117" r="2.1"/><circle cx="915" cy="117" r="2.1"/><circle cx="887" cy="124" r="2.1"/><circle cx="915" cy="124" r="2.1"/><circle cx="887" cy="131" r="2.1"/><circle cx="894" cy="131" r="2.1"/><circle cx="901" cy="131" r="2.1"/><circle cx="908" cy="131" r="2.1"/><circle cx="887" cy="138" r="2.1"/><circle cx="901" cy="138" r="2.1"/><circle cx="887" cy="145" r="2.1"/><circle cx="908" cy="145" r="2.1"/><circle cx="887" cy="152" r="2.1"/><circle cx="915" cy="152" r="2.1"/><circle cx="929" cy="110" r="2.1"/><circle cx="936" cy="110" r="2.1"/><circle cx="943" cy="110" r="2.1"/><circle cx="950" cy="110" r="2.1"/><circle cx="957" cy="110" r="2.1"/><circle cx="943" cy="117" r="2.1"/><circle cx="943" cy="124" r="2.1"/><circle cx="943" cy="131" r="2.1"/><circle cx="943" cy="138" r="2.1"/><circle cx="943" cy="145" r="2.1"/><circle cx="929" cy="152" r="2.1"/><circle cx="936" cy="152" r="2.1"/><circle cx="943" cy="152" r="2.1"/><circle cx="950" cy="152" r="2.1"/><circle cx="957" cy="152" r="2.1"/><circle cx="971" cy="110" r="2.1"/><circle cx="999" cy="110" r="2.1"/><circle cx="971" cy="117" r="2.1"/><circle cx="999" cy="117" r="2.1"/><circle cx="971" cy="124" r="2.1"/><circle cx="999" cy="124" r="2.1"/><circle cx="971" cy="131" r="2.1"/><circle cx="999" cy="131" r="2.1"/><circle cx="971" cy="138" r="2.1"/><circle cx="999" cy="138" r="2.1"/><circle cx="978" cy="145" r="2.1"/><circle cx="992" cy="145" r="2.1"/><circle cx="985" cy="152" r="2.1"/><circle cx="1013" cy="110" r="2.1"/><circle cx="1020" cy="110" r="2.1"/><circle cx="1027" cy="110" r="2.1"/><circle cx="1034" cy="110" r="2.1"/><circle cx="1041" cy="110" r="2.1"/><circle cx="1013" cy="117" r="2.1"/><circle cx="1013" cy="124" r="2.1"/><circle cx="1013" cy="131" r="2.1"/><circle cx="1020" cy="131" r="2.1"/><circle cx="1027" cy="131" r="2.1"/><circle cx="1034" cy="131" r="2.1"/><circle cx="1013" cy="138" r="2.1"/><circle cx="1013" cy="145" r="2.1"/><circle cx="1013" cy="152" r="2.1"/><circle cx="1020" cy="152" r="2.1"/><circle cx="1027" cy="152" r="2.1"/><circle cx="1034" cy="152" r="2.1"/><circle cx="1041" cy="152" r="2.1"/><circle cx="1055" cy="110" r="2.1"/><circle cx="1062" cy="110" r="2.1"/><circle cx="1069" cy="110" r="2.1"/><circle cx="1076" cy="110" r="2.1"/><circle cx="1083" cy="110" r="2.1"/><circle cx="1069" cy="117" r="2.1"/><circle cx="1069" cy="124" r="2.1"/><circle cx="1069" cy="131" r="2.1"/><circle cx="1069" cy="138" r="2.1"/><circle cx="1069" cy="145" r="2.1"/><circle cx="1069" cy="152" r="2.1"/></g>
  </g>

  <!-- top strip -->
  <g class="in">
    <text class="mono kicker" x="40" y="45">AGENTIC AI &#160;&#183;&#160; VOICE AI &#160;&#183;&#160; LLM SYSTEMS</text>

    <rect x="1020" y="28" width="140" height="26" rx="13" fill="#0C1A17" stroke="#1E3A34"/>
    <circle class="dot" cx="1040" cy="41" r="3.5" fill="#34D399"/>
    <text class="sans status" x="1054" y="45">OPEN TO WORK</text>
  </g>

  <line x1="40" y1="68" x2="1160" y2="68" stroke="#16202B"/>

  <!-- wordmark -->
  <g class="in" style="animation-delay:.08s">
    <text class="sans" x="40" y="142" font-size="60" font-weight="700" letter-spacing="-1.5" fill="#E6EDF3">ShockRock<tspan fill="#22D3EE">2004</tspan></text>
    <rect x="40" y="160" width="56" height="3" rx="1.5" fill="#22D3EE"/>
  </g>

  <g class="in" style="animation-delay:.16s">
    <text class="mono lede" x="40" y="192">final year at IIT Madras &#160;&#183;&#160; agentic systems and real time voice</text>
  </g>

  <!-- spec strip -->
  <line x1="40" y1="218" x2="1160" y2="218" stroke="#16202B"/>

  <g class="in" style="animation-delay:.24s">
    <line x1="305" y1="226" x2="305" y2="264" stroke="#16202B"/>
    <line x1="595" y1="226" x2="595" y2="264" stroke="#16202B"/>
    <line x1="885" y1="226" x2="885" y2="264" stroke="#16202B"/>

    <text class="mono lbl" x="40"  y="238">STACK</text>
    <text class="mono val" x="40"  y="257">C++ &#183; JavaScript &#183; Python</text>

    <text class="mono lbl" x="330" y="238">SHIPPED</text>
    <text class="mono val" x="330" y="257">grindz.dev</text>

    <text class="mono lbl" x="620" y="238">LEARNING</text>
    <text class="mono val" x="620" y="257">systems &#183; networks &#183; DSA</text>

    <text class="mono lbl" x="910" y="238">GRADUATING</text>
    <text class="mono val" x="910" y="257">2027</text>
  </g>
</svg>
